<?xml version="1.0" encoding="UTF-8"?>
<svg xmlns="http://www.w3.org/2000/svg" xmlns:xlink="http://www.w3.org/1999/xlink" width="64pt" height="64pt" viewBox="0 0 64 64" version="1.1">
<defs>
<linearGradient id="linear0" gradientUnits="userSpaceOnUse" x1="86" y1="12.54256" x2="86" y2="160.341629" gradientTransform="matrix(0.372093,0,0,0.372093,0,0)">
<stop offset="0" style="stop-color:rgb(10.196079%,42.745098%,100%);stop-opacity:1;"/>
<stop offset="1" style="stop-color:rgb(78.431374%,13.333334%,100%);stop-opacity:1;"/>
</linearGradient>
<linearGradient id="linear1" gradientUnits="userSpaceOnUse" x1="118.25" y1="12.54256" x2="118.25" y2="160.341629" gradientTransform="matrix(0.372093,0,0,0.372093,0,0)">
<stop offset="0" style="stop-color:rgb(10.196079%,42.745098%,100%);stop-opacity:1;"/>
<stop offset="1" style="stop-color:rgb(78.431374%,13.333334%,100%);stop-opacity:1;"/>
</linearGradient>
<linearGradient id="linear2" gradientUnits="userSpaceOnUse" x1="40.3125" y1="12.54256" x2="40.3125" y2="160.341629" gradientTransform="matrix(0.372093,0,0,0.372093,0,0)">
<stop offset="0" style="stop-color:rgb(10.196079%,42.745098%,100%);stop-opacity:1;"/>
<stop offset="1" style="stop-color:rgb(78.431374%,13.333334%,100%);stop-opacity:1;"/>
</linearGradient>
<linearGradient id="linear3" gradientUnits="userSpaceOnUse" x1="56.4375" y1="12.54256" x2="56.4375" y2="160.341629" gradientTransform="matrix(0.372093,0,0,0.372093,0,0)">
<stop offset="0" style="stop-color:rgb(10.196079%,42.745098%,100%);stop-opacity:1;"/>
<stop offset="1" style="stop-color:rgb(78.431374%,13.333334%,100%);stop-opacity:1;"/>
</linearGradient>
<linearGradient id="linear4" gradientUnits="userSpaceOnUse" x1="130.34375" y1="123.458382" x2="130.34375" y2="142.746567" gradientTransform="matrix(0.372093,0,0,0.372093,0,0)">
<stop offset="0" style="stop-color:rgb(54.11765%,70.588237%,100%);stop-opacity:1;"/>
<stop offset="1" style="stop-color:rgb(89.411765%,57.254905%,100%);stop-opacity:1;"/>
</linearGradient>
</defs>
<g id="surface51284776">
<path style=" stroke:none;fill-rule:nonzero;fill:url(#linear0);" d="M 53 16 L 48 16 L 48 14 C 48 12.898438 47.101562 12 46 12 L 42 12 C 40.898438 12 40 12.898438 40 14 L 40 16 L 32 16 L 32 11 C 32 8.242188 29.757812 6 27 6 L 11 6 C 8.242188 6 6 8.242188 6 11 L 6 25 C 6 27.757812 8.242188 30 11 30 L 16 30 L 16 53 C 16 55.757812 18.242188 58 21 58 L 53 58 C 55.757812 58 58 55.757812 58 53 L 58 21 C 58 18.242188 55.757812 16 53 16 Z M 42 14 L 46 14 L 46 20 L 42 20 Z M 40 18 L 40 20 C 40 21.101562 40.898438 22 42 22 L 46 22 C 47.101562 22 48 21.101562 48 20 L 48 18 L 53 18 C 54.652344 18 56 19.347656 56 21 L 56 26 L 31.898438 26 C 31.964844 25.675781 32 25.34375 32 25 L 32 18 Z M 41 51 L 33 51 L 33 44 L 41 44 Z M 23 34 L 31 34 L 31 42 L 23 42 Z M 23 44 L 31 44 L 31 51 L 23 51 Z M 33 42 L 33 34 L 41 34 L 41 42 Z M 43 34 L 51 34 L 51 42 L 43 42 Z M 31 27.96875 L 31 28 L 51 28 L 51 32 L 23 32 L 23 30 L 27 30 C 28.640625 30 30.089844 29.195312 31 27.96875 Z M 8 25 L 8 11 C 8 9.347656 9.347656 8 11 8 L 27 8 C 28.652344 8 30 9.347656 30 11 L 30 25 C 30 26.652344 28.652344 28 27 28 L 11 28 C 9.347656 28 8 26.652344 8 25 Z M 53 56 L 21 56 C 19.347656 56 18 54.652344 18 53 L 18 30 L 21 30 L 21 53 L 43 53 L 43 44 L 53 44 L 53 28 L 56 28 L 56 53 C 56 54.652344 54.652344 56 53 56 Z M 53 56 "/>
<path style=" stroke:none;fill-rule:nonzero;fill:url(#linear1);" d="M 43 15 L 45 15 L 45 19 L 43 19 Z M 43 15 "/>
<path style=" stroke:none;fill-rule:nonzero;fill:url(#linear2);" d="M 14 12 L 16 12 L 16 24 L 14 24 Z M 14 12 "/>
<path style=" stroke:none;fill-rule:nonzero;fill:url(#linear3);" d="M 18 24 L 24 24 L 24 12 L 18 12 Z M 20 14 L 22 14 L 22 22 L 20 22 Z M 20 14 "/>
<path style=" stroke:none;fill-rule:nonzero;fill:url(#linear4);" d="M 45 53 L 45 47 C 45 46.449219 45.449219 46 46 46 L 52 46 Z M 45 53 "/>
</g>
</svg>
