<?xml version="1.0" encoding="UTF-8"?>
<svg xmlns="http://www.w3.org/2000/svg" xmlns:xlink="http://www.w3.org/1999/xlink" width="64pt" height="64pt" viewBox="0 0 64 64" version="1.1">
<defs>
<linearGradient id="linear0" gradientUnits="userSpaceOnUse" x1="55.091061" y1="34.940189" x2="55.091061" y2="63.382" gradientTransform="matrix(0.372093,0,0,0.372093,0,0)">
<stop offset="0" style="stop-color:rgb(54.11765%,70.588237%,100%);stop-opacity:1;"/>
<stop offset="1" style="stop-color:rgb(89.411765%,57.254905%,100%);stop-opacity:1;"/>
</linearGradient>
<linearGradient id="linear1" gradientUnits="userSpaceOnUse" x1="65.873306" y1="14.16313" x2="69.904556" y2="160.650696" gradientTransform="matrix(0.372093,0,0,0.372093,0,0)">
<stop offset="0" style="stop-color:rgb(10.196079%,42.745098%,100%);stop-opacity:1;"/>
<stop offset="1" style="stop-color:rgb(78.431374%,13.333334%,100%);stop-opacity:1;"/>
</linearGradient>
<linearGradient id="linear2" gradientUnits="userSpaceOnUse" x1="83.605438" y1="13.67669" x2="87.636688" y2="160.16156" gradientTransform="matrix(0.372093,0,0,0.372093,0,0)">
<stop offset="0" style="stop-color:rgb(10.196079%,42.745098%,100%);stop-opacity:1;"/>
<stop offset="1" style="stop-color:rgb(78.431374%,13.333334%,100%);stop-opacity:1;"/>
</linearGradient>
</defs>
<g id="surface51288380">
<path style=" stroke:none;fill-rule:nonzero;fill:url(#linear0);" d="M 25 14 C 20 14 15.996094 18 15.996094 23 L 25 23 Z M 25 14 "/>
<path style=" stroke:none;fill-rule:nonzero;fill:url(#linear1);" d="M 25 10 C 17.828125 10 11.996094 15.832031 11.996094 23.003906 C 11.996094 30.171875 17.828125 36.003906 25 36.003906 C 32.167969 36.003906 38 30.171875 38 23.003906 C 38 15.832031 32.167969 10 25 10 Z M 25 34.003906 C 18.933594 34.003906 13.996094 29.066406 13.996094 23.003906 C 13.996094 16.9375 18.933594 12 25 12 C 31.066406 12 36 16.9375 36 23.003906 C 36 29.066406 31.066406 34.003906 25 34.003906 Z M 25 34.003906 "/>
<path style=" stroke:none;fill-rule:nonzero;fill:url(#linear2);" d="M 54.769531 48.558594 L 46.019531 38.695312 C 45.300781 37.882812 44.023438 37.773438 43.171875 38.453125 L 40.6875 40.425781 L 36.5625 35.429688 C 39.898438 32.324219 42 27.910156 42 23.003906 C 42 13.628906 34.375 6 25 6 C 15.625 6 7.996094 13.628906 7.996094 23.003906 C 7.996094 32.378906 15.625 40.003906 25 40.003906 C 28.746094 40.003906 32.207031 38.769531 35.019531 36.707031 L 39.117188 41.667969 L 36.753906 43.546875 C 36.320312 43.890625 36.054688 44.378906 36.007812 44.921875 C 35.960938 45.460938 36.132812 45.980469 36.496094 46.390625 L 45.25 56.253906 C 46.273438 57.40625 47.738281 58 49.214844 58 C 50.382812 58 51.558594 57.628906 52.523438 56.863281 L 54.128906 55.589844 C 55.210938 54.730469 55.867188 53.519531 55.984375 52.183594 C 56.101562 50.859375 55.667969 49.570312 54.769531 48.558594 Z M 9.996094 23.003906 C 9.996094 14.730469 16.726562 8 25 8 C 33.269531 8 40 14.730469 40 23.003906 C 40 31.273438 33.273438 38.003906 25 38.003906 C 16.726562 38.003906 9.996094 31.273438 9.996094 23.003906 Z M 48.640625 44.664062 L 42.175781 49.800781 L 40.699219 48.144531 L 47.171875 43.007812 Z M 44.417969 40.019531 C 44.429688 40.007812 44.449219 40.003906 44.46875 40.003906 C 44.488281 40.003906 44.511719 40.011719 44.523438 40.023438 L 45.839844 41.507812 L 39.363281 46.648438 L 37.996094 45.113281 Z M 52.886719 54.023438 L 51.277344 55.296875 C 49.917969 56.378906 47.882812 56.210938 46.746094 54.925781 L 43.507812 51.296875 L 49.972656 46.164062 L 53.273438 49.886719 C 53.804688 50.484375 54.058594 51.238281 53.992188 52.007812 C 53.925781 52.796875 53.53125 53.511719 52.886719 54.023438 Z M 52.886719 54.023438 "/>
</g>
</svg>
