<?xml version="1.0" encoding="UTF-8"?>
<svg xmlns="http://www.w3.org/2000/svg" xmlns:xlink="http://www.w3.org/1999/xlink" width="64pt" height="64pt" viewBox="0 0 64 64" version="1.1">
<defs>
<linearGradient id="linear0" gradientUnits="userSpaceOnUse" x1="123.625" y1="26.64925" x2="123.625" y2="37.42075" gradientTransform="matrix(0.372093,0,0,0.372093,0,0)">
<stop offset="0" style="stop-color:rgb(54.11765%,70.588237%,100%);stop-opacity:1;"/>
<stop offset="1" style="stop-color:rgb(89.411765%,57.254905%,100%);stop-opacity:1;"/>
</linearGradient>
<linearGradient id="linear1" gradientUnits="userSpaceOnUse" x1="48.375" y1="26.64925" x2="48.375" y2="37.42075" gradientTransform="matrix(0.372093,0,0,0.372093,0,0)">
<stop offset="0" style="stop-color:rgb(54.11765%,70.588237%,100%);stop-opacity:1;"/>
<stop offset="1" style="stop-color:rgb(89.411765%,57.254905%,100%);stop-opacity:1;"/>
</linearGradient>
<linearGradient id="linear2" gradientUnits="userSpaceOnUse" x1="86" y1="68.980057" x2="86" y2="80.633057" gradientTransform="matrix(0.372093,0,0,0.372093,0,0)">
<stop offset="0" style="stop-color:rgb(54.11765%,70.588237%,100%);stop-opacity:1;"/>
<stop offset="1" style="stop-color:rgb(89.411765%,57.254905%,100%);stop-opacity:1;"/>
</linearGradient>
<linearGradient id="linear3" gradientUnits="userSpaceOnUse" x1="86" y1="23.292561" x2="86" y2="149.642685" gradientTransform="matrix(0.372093,0,0,0.372093,0,0)">
<stop offset="0" style="stop-color:rgb(10.196079%,42.745098%,100%);stop-opacity:1;"/>
<stop offset="1" style="stop-color:rgb(78.431374%,13.333334%,100%);stop-opacity:1;"/>
</linearGradient>
</defs>
<g id="surface625035">
<rect x="0" y="0" width="64" height="64" style="fill:rgb(95.686275%,96.862745%,98.823529%);fill-opacity:1;stroke:none;"/>
<path style=" stroke:none;fill-rule:nonzero;fill:url(#linear0);" d="M 43 11 L 49 11 L 49 13 L 43 13 Z M 43 11 "/>
<path style=" stroke:none;fill-rule:nonzero;fill:url(#linear1);" d="M 15 11 L 21 11 L 21 13 L 15 13 Z M 15 11 "/>
<path style=" stroke:none;fill-rule:nonzero;fill:url(#linear2);" d="M 39 28 C 39 28.550781 38.550781 29 38 29 L 26 29 C 25.449219 29 25 28.550781 25 28 C 25 27.449219 25.449219 27 26 27 L 38 27 C 38.550781 27 39 27.449219 39 28 Z M 39 28 "/>
<path style=" stroke:none;fill-rule:nonzero;fill:url(#linear3);" d="M 55.945312 41.167969 L 54.128906 15.78125 C 54.019531 14.21875 52.699219 13 51.140625 13 L 51 13 L 51 12 C 51 10.347656 49.652344 9 48 9 L 44 9 C 42.347656 9 41 10.347656 41 12 L 41 13 L 40.859375 13 C 39.300781 13 37.980469 14.21875 37.871094 15.789062 L 37.351562 23 L 26.648438 23 L 26.128906 15.78125 C 26.019531 14.21875 24.699219 13 23.140625 13 L 23 13 L 23 12 C 23 10.347656 21.652344 9 20 9 L 16 9 C 14.347656 9 13 10.347656 13 12 L 13 13 L 12.859375 13 C 11.300781 13 9.980469 14.21875 9.871094 15.789062 L 8.054688 41.167969 C 6.863281 41.566406 6 42.679688 6 44 L 6 52 C 6 53.652344 7.347656 55 9 55 L 27 55 C 28.652344 55 30 53.652344 30 52 L 30 44 C 30 42.679688 29.136719 41.566406 27.945312 41.167969 L 27.363281 33 L 36.640625 33 L 36.054688 41.167969 C 34.863281 41.566406 34 42.679688 34 44 L 34 52 C 34 53.652344 35.347656 55 37 55 L 55 55 C 56.652344 55 58 53.652344 58 52 L 58 44 C 58 42.679688 57.136719 41.566406 55.945312 41.167969 Z M 43 12 C 43 11.449219 43.449219 11 44 11 L 48 11 C 48.550781 11 49 11.449219 49 12 L 49 13 L 43 13 Z M 40.859375 15 L 51.140625 15 C 51.660156 15 52.101562 15.410156 52.140625 15.929688 L 52.214844 17 L 39.785156 17 L 39.859375 15.929688 C 39.898438 15.410156 40.339844 15 40.859375 15 Z M 40 25 C 40.550781 25 41 25.449219 41 26 L 41 30 C 41 30.550781 40.550781 31 40 31 L 24 31 C 23.449219 31 23 30.550781 23 30 L 23 26 C 23 25.449219 23.449219 25 24 25 Z M 15 12 C 15 11.449219 15.449219 11 16 11 L 20 11 C 20.550781 11 21 11.449219 21 12 L 21 13 L 15 13 Z M 12.859375 15 L 23.140625 15 C 23.660156 15 24.101562 15.410156 24.140625 15.929688 L 24.214844 17 L 11.785156 17 L 11.859375 15.929688 C 11.898438 15.410156 12.339844 15 12.859375 15 Z M 28 52 C 28 52.550781 27.550781 53 27 53 L 9 53 C 8.449219 53 8 52.550781 8 52 L 8 51 L 18 51 L 18 49 L 8 49 L 8 47 L 14 47 L 14 45 L 8 45 L 8 44 C 8 43.449219 8.449219 43 9 43 L 27 43 C 27.550781 43 28 43.449219 28 44 Z M 25.925781 41 L 10.074219 41 L 11.640625 19 L 24.355469 19 L 24.640625 23 L 24 23 C 22.347656 23 21 24.347656 21 26 L 21 30 C 21 31.652344 22.347656 33 24 33 L 25.351562 33 Z M 40 33 C 41.652344 33 43 31.652344 43 30 L 43 26 C 43 24.347656 41.652344 23 40 23 L 39.359375 23 L 39.644531 19 L 52.359375 19 L 53.925781 41 L 38.074219 41 L 38.648438 33 Z M 55 53 L 37 53 C 36.449219 53 36 52.550781 36 52 L 36 44 C 36 43.449219 36.449219 43 37 43 L 55 43 C 55.550781 43 56 43.449219 56 44 L 56 45 L 50 45 L 50 47 L 56 47 L 56 49 L 46 49 L 46 51 L 56 51 L 56 52 C 56 52.550781 55.550781 53 55 53 Z M 55 53 "/>
</g>
</svg>
